PathFileType	4	(X/Y/Z)	C:/Users/beibeiliu/ov580/test_trc\sequence.1_training_dense_left.trc
DataRate	CameraRate	NumFrames	NumMarkers	Units	OrigDataRate	OrigDataStartFrame	OrigNumFrames
120	120	23	19	mm	120	1	345
Frame#	Time	ThumbCMC			ThumbMCP			ThumbIP			ThumbTip			IndexMCP			IndexPIP			IndexTip			MiddleMCP			MiddlePIP			MiddleTip			RingMCP			RingPIP			RingTip			PinkyMCP			PinkyPIP			PinkyTip			BackHand1			BackHand2			BackHand3	
		X0	Y0	Z0	X1	Y1	Z1	X2	Y2	Z2	X3	Y3	Z3	X4	Y4	Z4	X5	Y5	Z5	X6	Y6	Z6	X7	Y7	Z7	X8	Y8	Z8	X9	Y9	Z9	X10	Y10	Z10	X11	Y11	Z11	X12	Y12	Z12	X13	Y13	Z13	X14	Y14	Z14	X15	Y15	Z15	X16	Y16	Z16	X17	Y17	Z17	X18	Y18	Z18	
0	0	-157.437	-6.50792	3.14282	-152.451	-31.8569	-11.3541	-145.962	-48.1833	-28.5619	-144.657	-63.8274	-45.9787	-166.555	-19.7097	-62.3176	-162.109	-34.9073	-77.8242	-158.433	-52.5402	-98.8957	-187.763	-25.772	-66.9802	-189.818	-45.4115	-82.7738	-193.443	-68.9935	-94.7432	-206.773	-27.5645	-61.4743	-209.459	-43.1255	-72.4262	-211.904	-62.7064	-82.3175	-230.159	-23.3732	-46.7284	-233.321	-35.2899	-55.5468	-236.043	-49.9504	-71.0916	-204.356	9.08898	-28.0374	-203.875	22.5489	0.504116	-178.544	15.7326	-15.7808	
1	0.00833333	-163.389	-5.321	-0.634017	-149.12	-30.7964	-13.5485	-145.691	-46.1532	-27.0375	-142.409	-59.0829	-37.9116	-163.949	-22.5234	-64.7635	-161.591	-37.3894	-77.9017	-153.4	-54.1147	-96.5487	-189.294	-29.2775	-68.6963	-184.684	-50.4102	-81.8565	-187.814	-73.9071	-93.0616	-206.923	-30.1252	-59.6726	-207.146	-48.8608	-71.2526	-208.895	-68.5535	-81.0185	-225.681	-26.0972	-46.0188	-231.093	-41.2558	-56.6848	-235.917	-59.201	-69.7221	-206.413	6.70862	-25.5183	-204.979	20.8634	-4.50362	-179.715	13.9161	-18.2345	
2	0.0166667	-160.28	-3.727	2.27347	-148.665	-27.3585	-9.91766	-145.235	-42.3293	-25.5286	-137.221	-59.7781	-40.4665	-164.027	-21.3112	-62.1176	-158.157	-38.4785	-79.1884	-152.822	-56.851	-94.997	-182.715	-31.5005	-67.0825	-181.897	-48.2897	-78.4626	-183.19	-75.3047	-89.8565	-206.964	-32.1787	-59.3616	-201.479	-50.808	-69.8456	-200.924	-75.2797	-80.5484	-224.064	-28.7293	-44.3639	-228.657	-49.4694	-56.7531	-230.574	-60.9898	-66.7413	-208.397	5.793	-25.6696	-206.774	20.1348	-4.38606	-180.416	14.0844	-17.7125	
3	0.025	-161.261	-1.5474	4.68324	-149.266	-23.5653	-6.42421	-139.183	-42.1434	-25.9305	-135.099	-54.3707	-35.1009	-156.783	-23.2739	-62.8624	-155.894	-37.4583	-75.8331	-145.601	-53.5893	-89.6699	-182.682	-30.1041	-64.7756	-177.693	-50.8025	-77.3316	-173.974	-74.5029	-87.433	-199.23	-32.4	-57.8331	-196.434	-57.8945	-69.954	-195.146	-78.1655	-76.6303	-223.138	-33.3185	-45.8853	-223.73	-52.4996	-54.4056	-221.478	-67.5171	-63.822	-209.521	4.26982	-27.2806	-207.841	17.2233	-4.80372	-183.585	14.8588	-15.4642	
4	0.0333333	-160.698	-0.547031	0.589381	-148.128	-22.141	-7.90769	-136.801	-37.8891	-21.7592	-130.499	-50.5614	-32.6035	-158.284	-22.1436	-61.7106	-147.541	-38.1288	-76.5317	-144.409	-55.4971	-91.5441	-177.584	-29.8823	-62.8315	-170.228	-50.5975	-75.7351	-168.474	-74.963	-85.9873	-197.893	-37.1553	-57.9538	-190.753	-59.7248	-68.0607	-187.159	-79.3126	-73.332	-216.236	-35.6355	-46.6952	-215.292	-55.8821	-54.8199	-210.306	-73.3122	-64.4802	-207.636	1.38788	-26.5066	-213.444	16.6954	-4.80829	-184.468	15.5629	-18.2807	
5	0.0416667	-160.016	2.14532	1.24043	-148.322	-18.4509	-7.24159	-136.363	-33.6091	-21.1725	-126.421	-45.174	-28.8021	-157.309	-21.0797	-61.0884	-146.301	-35.8155	-75.2041	-143.878	-50.6168	-86.2393	-176.349	-29.6242	-61.9875	-168.969	-53.1746	-75.3538	-163.732	-75.9568	-83.6217	-193.184	-38.4315	-57.6893	-187.971	-61.0215	-65.6032	-181.331	-76.7458	-69.8507	-213.004	-38.1554	-44.7499	-209.039	-57.937	-53.7752	-206.7	-75.0716	-60.9773	-209.091	-1.71395	-29.8812	-216.108	12.597	-7.48644	-186.046	14.5473	-18.7236	
6	0.05	-163.82	6.41479	3.90765	-145.291	-14.7294	-8.31496	-132.963	-26.8483	-16.2732	-120.381	-39.6995	-26.7411	-154.168	-18.2741	-60.7556	-145.968	-30.933	-71.0696	-138.943	-49.2135	-87.6907	-176.866	-32.3907	-63.4804	-167.059	-50.2966	-73.0587	-157.733	-76.2207	-81.779	-193.081	-38.1553	-55.1172	-185.571	-60.3162	-62.9096	-174.068	-80.0107	-66.3977	-210.32	-42.9486	-45.3184	-202.842	-62.8389	-51.194	-199.035	-77.8986	-55.953	-208.43	0.390588	-26.7923	-216.21	10.7592	-7.08106	-187.703	17.6097	-14.5293	
7	0.0583333	-168.792	8.52289	4.47334	-146.623	-10.377	-5.99765	-130.323	-21.5708	-14.8593	-116.702	-32.5322	-23.7923	-154.746	-12.8761	-57.1516	-145.461	-26.6937	-69.7984	-132.741	-40.326	-83.0436	-168.939	-31.002	-63.8363	-157.951	-51.7962	-72.3447	-150.567	-70.3298	-79.2166	-192.569	-43.013	-53.432	-177.351	-63.3042	-61.615	-168.831	-82.5619	-63.3426	-211.204	-48.9908	-41.2729	-199.806	-61.9401	-47.6607	-194.25	-81.2433	-53.0141	-212.359	-4.53692	-30.17	-215.587	10.934	-9.30865	-191.707	13.9849	-18.9484	
8	0.0666667	-167.567	13.642	4.72012	-146.771	-5.75644	-5.30764	-130.258	-16.2375	-14.1807	-115.891	-25.5938	-20.1835	-155.726	-13.0375	-57.5854	-139.19	-25.5189	-71.4067	-130.057	-42.5393	-85.1154	-166.503	-31.0575	-62.9682	-157.082	-47.6145	-69.3053	-141.264	-72.0284	-77.6009	-183.11	-43.6247	-54.4242	-174.2	-59.4874	-58.0788	-162.016	-78.77	-60.9017	-203.507	-51.7136	-43.0832	-196.974	-65.2997	-45.5584	-185.685	-82.1112	-47.25	-208.432	-5.87031	-30.0011	-222.995	6.13164	-10.106	-195.523	13.5871	-20.4822	
9	0.075	-171.282	11.7397	-0.296398	-148.944	-1.68383	-4.78192	-129.73	-12.1951	-16.2439	-112.105	-18.2114	-20.3474	-152.774	-8.77139	-55.1036	-140.482	-26.5527	-70.2031	-125.675	-34.4162	-79.8522	-166.664	-33.3778	-60.6618	-150.702	-48.3022	-68.5672	-138.896	-70.444	-73.4086	-184.969	-46.6061	-51.4124	-167.959	-65.9564	-56.9884	-156.516	-80.2827	-57.1257	-201.424	-53.0867	-40.2484	-189.769	-65.506	-43.2089	-177.696	-84.1921	-43.0751	-210.578	-7.35872	-28.5125	-221.231	4.1648	-10.3836	-193.599	14.765	-20.0766	
10	0.0833333	-173.593	16.7535	4.71879	-150.291	1.11112	-3.35303	-131.172	-8.8092	-14.6282	-114.696	-13.7019	-18.9813	-149.742	-9.68033	-55.3786	-137.881	-23.8192	-67.807	-120.388	-30.6853	-78.0035	-161.579	-33.2041	-60.402	-146.166	-50.1027	-66.9944	-125.448	-68.5421	-70.9849	-176.576	-43.0621	-50.4889	-160.982	-63.9185	-55.8671	-141.975	-76.5088	-55.2259	-196.339	-55.5468	-38.4137	-180.143	-69.6329	-42.7144	-170.373	-85.4496	-41.3132	-210.756	-15.0165	-29.0904	-223.728	0.295477	-9.53419	-200.273	11.2869	-19.3345	
11	0.0916667	-173.678	16.188	-0.188163	-148.197	6.2	-3.37574	-132.076	-2.2082	-9.77395	-113.528	-5.79955	-16.9852	-149.526	-11.2114	-56.6809	-134.564	-17.3901	-64.0855	-119.074	-29.6123	-76.0559	-159.516	-33.9935	-58.2913	-142.225	-44.0272	-63.9659	-122.27	-65.3065	-68.2864	-173.848	-43.2576	-48.8104	-156.214	-61.8551	-52.7891	-135.523	-76.1842	-53.0794	-191.989	-59.0823	-36.9536	-174.16	-73.2473	-38.9711	-160.162	-84.9349	-38.1155	-206.708	-13.5839	-27.8059	-223.933	-3.49993	-11.7932	-199.867	10.7277	-22.0629	
12	0.1	-178.073	19.2588	3.16347	-151.044	10.3312	-0.361203	-127.618	5.35911	-11.3023	-110.804	3.36773	-14.4274	-147.768	-6.55576	-55.5504	-127.897	-15.1205	-65.6485	-115.474	-25.2892	-75.1753	-154.342	-30.3803	-57.2664	-136.843	-42.389	-62.5816	-111.123	-59.7067	-64.5018	-167.9	-42.85	-49.1292	-150.602	-61.8781	-51.1648	-132.353	-72.4725	-49.6362	-184.404	-60.7217	-38.4562	-169.963	-69.3454	-38.8836	-150.319	-83.7723	-37.3416	-207.999	-19.2578	-29.418	-221.83	-6.91392	-14.6485	-198.019	12.1518	-23.8334	
13	0.108333	-177.616	17.4934	-0.155932	-150.498	13.3004	-3.03093	-129.26	9.78647	-10.7172	-111.26	9.14049	-14.5147	-145.832	-0.459676	-53.0229	-130.169	-10.6371	-62.5049	-111.817	-17.8534	-73.5139	-152.329	-26.5168	-55.9449	-131.192	-38.5975	-61.4867	-112.434	-55.6424	-62.7408	-164.348	-45.0864	-48.1817	-143.609	-58.9647	-50.6638	-120.329	-65.3398	-48.5542	-175.965	-57.0971	-40.0745	-159.94	-68.1594	-39.8551	-146.198	-81.866	-39.6754	-205.148	-16.3119	-30.7371	-219.9	-8.06463	-16.9945	-197.623	10.6173	-23.9475	
14	0.116667	-181.321	18.6026	0.905566	-153.718	15.0035	-1.83804	-133.953	12.7564	-9.23053	-112.198	14.3581	-15.4307	-147.483	0.63493	-52.7801	-124.679	-6.24706	-64.3928	-103.818	-9.8794	-73.3272	-150.519	-22.9921	-55.0068	-126.063	-37.7244	-60.6675	-103.05	-47.6858	-59.9035	-158.406	-42.1546	-48.4767	-138.693	-54.429	-48.9818	-115.106	-60.3387	-45.9159	-176.457	-57.9512	-36.4748	-158.43	-65.3395	-37.9423	-139.128	-77.7708	-37.7138	-201.075	-21.6019	-31.5206	-222.217	-13.9071	-14.645	-200.06	6.90621	-23.184	
15	0.125	-186.882	17.2552	2.69629	-154.47	20.0516	-2.27119	-133.732	17.5756	-10.1418	-113.903	19.3785	-13.511	-146.274	3.66508	-50.913	-126.403	0.426782	-61.4077	-103.867	-6.31787	-72.604	-145.652	-21.7658	-54.711	-125.372	-29.3616	-57.5351	-94.6833	-40.1105	-56.236	-151.368	-38.3502	-47.9043	-128.995	-47.7758	-47.203	-110.798	-54.6694	-44.3197	-166.277	-55.9388	-36.5206	-149.291	-61.8315	-36.1966	-128.302	-74.3993	-33.5946	-200.97	-25.0593	-32.6662	-220.432	-18.6616	-16.0372	-199.377	3.47224	-25.5841	
16	0.133333	-184.595	19.7801	-0.676074	-155.413	22.8375	-0.126037	-133.64	23.0141	-8.39216	-115.062	25.9256	-10.6378	-145.401	4.52669	-50.3903	-121.11	6.14039	-59.5517	-103.291	0.185517	-66.9556	-144.174	-15.5027	-51.5873	-120.583	-24.3822	-54.6037	-89.9619	-31.606	-52.5782	-146.566	-36.6546	-45.317	-123.33	-41.794	-44.4073	-102.919	-46.035	-40.7573	-160.258	-56.387	-32.6774	-141.855	-60.2575	-32.9402	-122.31	-66.0332	-33.643	-193	-22.3929	-30.4543	-217.697	-21.9599	-13.8489	-199.613	0.512778	-27.046	
17	0.141667	-187.729	17.6442	1.79305	-156.321	27.5235	2.23853	-132.036	28.6021	-4.55094	-115.751	29.8807	-6.39301	-140.258	9.77139	-50.0375	-122.513	9.91832	-55.3199	-97.9146	3.25848	-65.3239	-139.283	-15.2941	-48.7964	-112.077	-22.0396	-51.9674	-85.402	-26.0137	-47.2099	-144.376	-35.5547	-41.2004	-118.097	-38.4717	-41.7706	-96.5343	-39.7508	-37.3203	-153.321	-54.8658	-28.4705	-134.906	-56.9285	-29.4378	-118.363	-63.2123	-29.5505	-188.023	-23.6681	-30.3762	-212.287	-23.0147	-16.7034	-195.637	-0.462541	-24.7092	
18	0.15	-183.736	18.7125	-0.0721466	-158.406	24.3173	1.80715	-135.746	32.4145	-0.510422	-116.276	37.262	-3.50984	-140.441	13.6845	-46.2688	-119.714	11.9543	-53.7532	-97.9245	11.1508	-59.88	-132.757	-9.14447	-47.8485	-109.483	-14.6031	-49.3656	-81.5356	-14.4355	-44.8545	-138.7	-31.6245	-39.3593	-112.276	-34.0238	-38.2566	-93.5551	-31.9658	-33.707	-150.195	-47.3313	-26.8239	-131.16	-54.8706	-26.3308	-109.762	-59.0867	-24.578	-187.696	-27.0193	-25.8881	-208.837	-25.0768	-13.8698	-196.757	1.84446	-20.9356	
19	0.158333	-184.717	21.5497	0.388882	-158.875	28.2847	2.3224	-135.225	34.2666	-3.68624	-118.19	41.479	-6.0131	-141.921	16.8461	-45.5377	-117.944	16.6007	-52.4929	-93.311	22.0999	-59.265	-134.395	-5.73168	-45.0083	-108.029	-10.6538	-45.9433	-78.2849	-8.53555	-40.594	-134.93	-26.9625	-36.383	-109.741	-30.1418	-35.035	-88.713	-22.5479	-32.002	-143.354	-46.9098	-23.9539	-123.173	-47.8516	-24.425	-103.432	-49.3477	-22.929	-183.621	-25.7267	-26.8468	-204.52	-27.1362	-11.8133	-193.741	0.383788	-25.0805	
20	0.166667	-187.51	17.2743	1.53365	-160.235	32.0962	2.7581	-139.918	39.0728	-3.18018	-120.41	47.6213	-6.85476	-137.373	17.1053	-46.2322	-116.835	20.7163	-52.428	-97.739	26.1665	-57.0365	-126.368	-6.09234	-45.0566	-101.07	-2.89004	-44.4315	-77.5679	-0.568144	-38.9093	-129.762	-25.7038	-33.6293	-105.141	-17.1518	-33.7144	-80.6314	-13.5465	-27.9934	-133.304	-44.2745	-22.328	-117.228	-43.7287	-20.4953	-94.5907	-39.0246	-21.1593	-176.025	-25.3025	-26.863	-200.935	-29.9288	-10.624	-191.939	-0.792629	-25.1433	
21	0.175	-187.978	19.0049	1.82099	-160.276	37.3276	0.932962	-142.076	44.5995	-3.46799	-127.37	57.3219	-4.09837	-142.073	21.7062	-45.0075	-119.315	25.7238	-50.6523	-97.0122	36.1014	-56.8835	-127.291	3.00076	-43.0484	-98.7433	5.0173	-42.3575	-75.9982	11.6129	-36.3529	-124.153	-20.4437	-32.7518	-103.317	-14.1981	-31.7878	-83.0814	-5.10479	-26.3767	-128.335	-37.7713	-21.0469	-107.177	-38.1569	-18.9577	-91.4344	-34.2026	-18.5045	-171.762	-28.299	-24.5184	-196.323	-29.3502	-11.5344	-191.293	-3.43686	-20.7192	
22	0.183333	-190.111	20.2158	1.44415	-164.496	37.688	1.44755	-144.876	49.8645	-4.43786	-130.405	59.9911	-6.62515	-142.272	26.4716	-44.8672	-122.154	34.4747	-49.7682	-100.498	45.3052	-56.6902	-127.356	6.16033	-40.9867	-103.53	15.0561	-41.6737	-75.4826	24.5844	-34.3108	-124.416	-11.647	-32.1883	-95.4029	-6.28581	-29.3171	-78.7674	3.28283	-23.0918	-124.254	-33.5718	-19.4051	-103.797	-30.1383	-16.7889	-86.211	-24.2897	-16.0009	-167.457	-28.5464	-25.4959	-192.608	-34.9516	-10.0831	-187.042	-3.696	-22.8025	
